<?xml version="1.0" encoding="UTF-8"?><svg id="uuid-679d3e7e-7384-4390-9e8b-bdc43bc8d87a" xmlns="http://www.w3.org/2000/svg" width="83.7" height="73" viewBox="0 0 83.7 73"><defs><style>.uuid-c7eb93d4-d029-416f-a2e0-d7ff52a3c721{fill:#fff;}.uuid-509748f2-1549-45bc-94fd-43cdf99d1636{fill:#bcbace;}.uuid-32a223e4-c7ae-475c-87f9-582cd7f6ddf0{fill:#98989a;}</style></defs><g id="uuid-a3dc58d2-4bda-4e75-8a2c-bc108ccd0247"><g id="uuid-19e6a750-cc67-4e61-b065-a67f35f5e272"><g><g><path class="uuid-32a223e4-c7ae-475c-87f9-582cd7f6ddf0" d="M29.1,72.3c-1.3-.9-2-2.6-1.5-4.3l7.4-24-21.4-1.2-4.5,6.1c-.6,.8-1.4,1.2-2.4,1.2-.6,0-1.2-.2-1.7-.5-1-.7-1.6-2-1.2-3.3l1.8-5.7-3.5-.1c-.3,0-.5-.1-.8-.2-.4-.3-.7-.8-.6-1.3,0-.8,.7-1.4,1.5-1.4l3.5,.1-2-5.5c-.5-1.9,.9-3.8,2.8-3.8,.6,0,1.2,.2,1.7,.5,.3,.2,.5,.4,.7,.7l4.6,6,21.4-2.5-7.6-24c-.8-2.4,1-4.9,3.6-4.9,.8,0,1.5,.2,2.1,.6,.4,.3,.8,.7,1.1,1.1l6.1,9.7,1.4-.7c.6-.3,1.3-.2,1.9,.1,.3,.2,.5,.4,.7,.8,.4,1,0,2.1-.9,2.5l-1,.5,2.4,3.9,1.8-.8c.6-.3,1.3-.2,1.9,.1,.3,.2,.5,.5,.7,.8,.4,1,0,2.1-.9,2.5l-1.5,.7,4.5,7.1,19.9-.1s6.5,.1,9.6,2.2c.9,.6,1.5,1.4,1.6,2.4,.4,5.8-11.4,6.2-11.4,6.2l-19.7,.2-3.8,6.2,2.5,1.4s.1,0,.1,.1c.8,.5,1.1,1.7,.6,2.5-.5,.9-1.7,1.2-2.6,.7l-2.6-1.5-2.4,3.8,1.5,.8s.1,0,.1,.1c.8,.5,1.1,1.7,.6,2.5-.5,.9-1.7,1.2-2.6,.7l-1.6-.8-6.7,10.7c-.7,1.1-1.9,1.8-3.2,1.8-.8,0-1.5-.2-2-.7"/><path class="uuid-32a223e4-c7ae-475c-87f9-582cd7f6ddf0" d="M82.3,37.6c-.2-4.4-11.2-4.6-11.2-4.6l-19.9,.1-4.4-7.1,1.4-.6c1-.4,1.4-1.6,.9-2.5-.4-1-1.6-1.4-2.5-.9l-1.8,.8-2.4-3.9,1-.5c1-.4,1.4-1.6,.9-2.5s-1.6-1.4-2.5-.9l-1.4,.7-6.3-9.7c-.7-1.1-1.9-1.8-3.2-1.8-2.5,0-4.4,2.5-3.6,4.9l7.6,24-21.4,2.5-4.6-6c-.6-.8-1.4-1.2-2.4-1.2-2,0-3.4,1.9-2.8,3.8l2,5.5-3.5-.1c-.8,0-1.5,.6-1.5,1.4s.6,1.5,1.4,1.5l3.5,.1-1.8,5.7c-.5,1.9,.9,3.8,2.9,3.8,.9,0,1.8-.5,2.4-1.2l4.5-6.1,21.4,1.2-7.4,24.1c-.8,2.4,1.1,4.9,3.6,4.9,1.3,0,2.5-.7,3.2-1.8l6.6-10.7,1.6,.9c.9,.5,2.1,.2,2.6-.7s.2-2.1-.7-2.6l-1.5-.8,2.4-3.9,2.6,1.5c.9,.5,2.1,.2,2.6-.7s.2-2.1-.7-2.6l-2.5-1.4,3.8-6.2,19.8-.1s11.7-.5,11.3-6.3h0Z"/><path class="uuid-32a223e4-c7ae-475c-87f9-582cd7f6ddf0" d="M0,39.1v-.2c0-.8,.7-1.4,1.4-1.4l10.4,.3c.8,0,1.4,.7,1.4,1.4v.2c0,.8-.7,1.4-1.4,1.4l-10.4-.3c-.8,0-1.4-.6-1.4-1.4Z"/><path class="uuid-32a223e4-c7ae-475c-87f9-582cd7f6ddf0" d="M34.9,33.2h4.6L31.3,14s-2.5-.3-2.4,0,6,19.2,6,19.2Z"/><polygon class="uuid-32a223e4-c7ae-475c-87f9-582cd7f6ddf0" points="35 44 39.6 44 32.3 60.7 29.8 60.8 35 44"/></g><g><g><path class="uuid-c7eb93d4-d029-416f-a2e0-d7ff52a3c721" d="M30.4,68.2c-1.3-.9-2-2.6-1.5-4.3l7.4-24.1-21.4-1.2-4.5,6.1c-.5,.7-1.4,1.2-2.4,1.2-.6,0-1.2-.2-1.7-.5-1-.7-1.6-2-1.2-3.3l1.9-5.7-3.5-.1c-.3,0-.5-.1-.8-.2-.4-.3-.7-.8-.7-1.3,0-.8,.7-1.4,1.5-1.4l3.5,.1-2-5.5c-.6-1.9,.9-3.8,2.8-3.8,.6,0,1.2,.2,1.7,.5,.3,.2,.5,.4,.7,.7l4.6,6,21.5-2.4L28.7,5c-.8-2.4,1-4.9,3.6-4.9,.8,0,1.5,.2,2.1,.6,.4,.3,.8,.7,1.1,1.1l6.1,9.7,1.4-.7c.6-.3,1.3-.2,1.9,.1,.3,.2,.5,.4,.7,.8,.4,.9,0,2.1-.9,2.5l-1,.5,2.4,3.9,1.8-.8c.6-.3,1.3-.2,1.9,.1,.3,.2,.5,.5,.7,.8,.4,1,0,2.1-.9,2.5l-1.4,.6,4.5,7.1,19.9-.1s6.5,.1,9.6,2.2c.9,.6,1.5,1.4,1.6,2.4,.4,5.8-11.4,6.2-11.4,6.2l-19.7,.1-3.8,6.2,2.5,1.4s.1,0,.1,.1c.8,.5,1.1,1.7,.6,2.5-.5,.9-1.7,1.2-2.6,.7l-2.6-1.5-2.4,3.9,1.5,.8s.1,0,.1,.1c.8,.5,1.1,1.7,.6,2.5-.5,.9-1.7,1.2-2.6,.7l-1.6-.9-6.8,10.8c-.7,1.1-1.9,1.8-3.2,1.8-.8,0-1.5-.2-2.1-.6"/><path class="uuid-c7eb93d4-d029-416f-a2e0-d7ff52a3c721" d="M83.7,33.4c-.3-4.4-11.2-4.6-11.2-4.6l-19.9,.1-4.5-7.1,1.4-.6c1-.4,1.4-1.6,.9-2.5-.4-1-1.6-1.4-2.5-.9l-1.9,.7-2.4-3.9,1-.5c1-.4,1.4-1.6,.9-2.5s-1.6-1.4-2.5-.9l-1.4,.7L35.5,1.7c-.7-1-1.9-1.7-3.2-1.7-2.5,0-4.4,2.5-3.6,4.9l7.6,24-21.4,2.5-4.6-6c-.6-.8-1.4-1.2-2.4-1.2-2,0-3.4,1.9-2.8,3.8l2,5.4-3.5-.1c-.8,0-1.5,.6-1.5,1.4s.6,1.5,1.4,1.5l3.5,.2-1.8,5.7c-.5,1.9,.9,3.8,2.9,3.8,.9,0,1.8-.5,2.4-1.2l4.5-6.1,21.4,1.2-7.4,24.1c-.8,2.4,1.1,4.9,3.6,4.9,1.3,0,2.5-.7,3.2-1.8l6.7-10.7,1.6,.9c.9,.5,2.1,.2,2.6-.7s.2-2.1-.7-2.6l-1.6-.9,2.4-3.9,2.6,1.5c.9,.5,2.1,.2,2.6-.7s.2-2.1-.7-2.6l-2.5-1.4,3.8-6.2,19.7-.1c0,.1,11.7-.4,11.4-6.2h0Z"/><path class="uuid-509748f2-1549-45bc-94fd-43cdf99d1636" d="M1.4,34.9v-.2c0-.8,.7-1.4,1.4-1.4l10.4,.3c.8,0,1.4,.7,1.4,1.4v.2c0,.8-.7,1.4-1.4,1.4l-10.5-.3c-.8,0-1.4-.7-1.3-1.4Z"/><path class="uuid-509748f2-1549-45bc-94fd-43cdf99d1636" d="M36.3,29h4.6l-8.3-19.2s-2.5-.3-2.4,0,6.1,19.1,6.1,19.2Z"/><polygon class="uuid-509748f2-1549-45bc-94fd-43cdf99d1636" points="36.3 39.8 41 39.8 33.7 56.5 31.2 56.6 36.3 39.8"/></g><g><path class="uuid-c7eb93d4-d029-416f-a2e0-d7ff52a3c721" d="M13.5,20.8c-.3,0-.5-.2-.5-.5s.2-.5,.5-.5l17.7-.1c.3,0,.5,.2,.5,.5s-.2,.5-.5,.5l-17.7,.1h0Z"/><path class="uuid-c7eb93d4-d029-416f-a2e0-d7ff52a3c721" d="M17.4,25.3c-.3,0-.5-.2-.5-.5s.2-.5,.5-.5l9.1-.3c.3,0,.5,.2,.5,.5s-.2,.5-.5,.5l-9.1,.3h0Z"/><path class="uuid-c7eb93d4-d029-416f-a2e0-d7ff52a3c721" d="M14.3,45.6c-.3,0-.5-.2-.5-.5s.2-.5,.5-.5l11.4-.1c.3,0,.5,.2,.5,.5s-.2,.5-.5,.5l-11.4,.1h0Z"/><path class="uuid-c7eb93d4-d029-416f-a2e0-d7ff52a3c721" d="M15.2,49.8c-.3,0-.5-.2-.5-.5s.2-.5,.5-.5l15.6-.1c.3,0,.5,.2,.5,.5s-.2,.5-.5,.5l-15.6,.1h0Z"/></g></g></g></g></g></svg>