<svg id="圖層_1" data-name="圖層 1" xmlns="http://www.w3.org/2000/svg" width="24" height="24" viewBox="0 0 24 24"><defs><style>.cls-1{fill:#f3ed75;}.cls-2{fill:#c789c0;}.cls-3{fill:#bbece9;}.cls-4{fill:#819b9a;}.cls-5{fill:#edc5ea;}.cls-6{fill:#fff;}</style></defs><title>skill_icon2</title><path class="cls-1" d="M20.25,11.52l-.56,2.17a.32.32,0,0,1-.32.32H14.11a.32.32,0,0,1-.32-.32l.57-2.17a.31.31,0,0,1,.31-.32h5.26A.32.32,0,0,1,20.25,11.52Z"/><path class="cls-2" d="M19.93,11.49h0l-.55,2.12v.07a0,0,0,0,1,0,0H14.08l.55-2.12v-.07a0,0,0,0,1,0,0h5.26m0-.29H14.67a.31.31,0,0,0-.31.32l-.57,2.17a.32.32,0,0,0,.32.32h5.26a.32.32,0,0,0,.32-.32l.56-2.17a.32.32,0,0,0-.32-.32Z"/><rect class="cls-3" x="5.51" y="14.87" width="3.19" height="6.71" rx="1.6" transform="translate(-11.12 25.33) rotate(-90)"/><path class="cls-2" d="M8.86,16.92a1.31,1.31,0,1,1,0,2.62H5.35a1.31,1.31,0,0,1,0-2.62H8.86m0-.29H5.35a1.6,1.6,0,1,0,0,3.19H8.86a1.6,1.6,0,1,0,0-3.19Z"/><path class="cls-4" d="M7.11,10.29a.15.15,0,0,1-.11,0l-.89-.91a.13.13,0,0,1,0-.2.15.15,0,0,1,.2,0L7,9.8V6.25a.15.15,0,0,1,.15-.14.14.14,0,0,1,.14.14v3.9a.14.14,0,0,1-.09.13Z"/><path class="cls-4" d="M7.11,10.34l-.09,0a.13.13,0,0,1,0-.2l.85-1a.14.14,0,1,1,.21.18l-.85,1A.13.13,0,0,1,7.11,10.34Z"/><path class="cls-4" d="M7.11,16.68a.21.21,0,0,1-.11,0l-.89-.91a.13.13,0,0,1,0-.2.15.15,0,0,1,.2,0l.65.66V12.64a.15.15,0,0,1,.15-.14.14.14,0,0,1,.14.14v3.9a.15.15,0,0,1-.09.13Z"/><path class="cls-4" d="M7.11,16.73a.12.12,0,0,1-.09,0,.13.13,0,0,1,0-.2l.85-1a.14.14,0,1,1,.21.19l-.85,1A.16.16,0,0,1,7.11,16.73Z"/><path class="cls-4" d="M12.65,13.68a.21.21,0,0,1-.1,0,.17.17,0,0,1,0-.21l.66-.65H9.66a.14.14,0,1,1,0-.28h3.9a.13.13,0,0,1,.13.08.15.15,0,0,1,0,.16l-.91.9A.15.15,0,0,1,12.65,13.68Z"/><path class="cls-4" d="M13.61,12.77a.14.14,0,0,1-.09,0l-1-.85a.16.16,0,0,1,0-.21.15.15,0,0,1,.2,0l1,.86a.14.14,0,0,1,0,.2A.15.15,0,0,1,13.61,12.77Z"/><rect class="cls-5" x="5.51" y="2.42" width="3.19" height="6.71" rx="0.36" transform="translate(1.33 12.88) rotate(-90)"/><path class="cls-2" d="M10.1,4.46a.07.07,0,0,1,.07.07V7a.07.07,0,0,1-.07.07h-6A.07.07,0,0,1,4,7V4.53a.07.07,0,0,1,.07-.07h6m0-.28h-6a.36.36,0,0,0-.36.35V7a.36.36,0,0,0,.36.36h6A.36.36,0,0,0,10.46,7V4.53a.36.36,0,0,0-.36-.35Z"/><path class="cls-6" d="M4.86,12.29,7,10.62a.24.24,0,0,1,.3,0l2.11,1.67a.24.24,0,0,1,0,.37L7.27,14.34a.24.24,0,0,1-.3,0L4.86,12.66A.24.24,0,0,1,4.86,12.29Z"/><path class="cls-2" d="M7.12,10.86l2,1.62-2,1.62-2-1.62,2-1.62m0-.3a.22.22,0,0,0-.15.06L4.86,12.29a.24.24,0,0,0,0,.37L7,14.34a.22.22,0,0,0,.3,0l2.11-1.68a.24.24,0,0,0,0-.37L7.27,10.62a.22.22,0,0,0-.15-.06Z"/><path class="cls-4" d="M12.53,19.81l-.08,0-1.28-1a.14.14,0,0,1-.05-.16.15.15,0,0,1,.14-.1h5.28V14.24a.15.15,0,0,1,.15-.15.15.15,0,0,1,.14.15v4.47a.14.14,0,0,1-.14.14h-5l.94.7a.14.14,0,0,1,0,.2A.14.14,0,0,1,12.53,19.81Z"/><path class="cls-4" d="M11.26,18.85a.16.16,0,0,1-.13-.08.14.14,0,0,1,.06-.19l1.28-.64a.14.14,0,0,1,.19.06.15.15,0,0,1-.06.2l-1.28.63Z"/><path class="cls-4" d="M14.42,8.44A1.28,1.28,0,1,1,15.7,7.16,1.28,1.28,0,0,1,14.42,8.44Zm0-2.27a1,1,0,0,0,0,2,1,1,0,1,0,0-2Z"/><path class="cls-4" d="M17,8.87a.14.14,0,0,1-.1,0,.15.15,0,0,1,0-.2l2.71-2.71a.15.15,0,0,1,.2,0,.17.17,0,0,1,0,.21l-2.71,2.7A.12.12,0,0,1,17,8.87Z"/><path class="cls-4" d="M19.69,8.87a.12.12,0,0,1-.1,0l-2.71-2.7a.17.17,0,0,1,0-.21.15.15,0,0,1,.2,0l2.71,2.71a.15.15,0,0,1,0,.2A.14.14,0,0,1,19.69,8.87Z"/></svg>