<svg id="圖層_1" data-name="圖層 1" xmlns="http://www.w3.org/2000/svg" width="24" height="24" viewBox="0 0 24 24"><defs><style>.cls-1{fill:#bbece9;}.cls-2{fill:#c789c0;}.cls-3{fill:#f3ed75;}.cls-4{fill:#edc5ea;}.cls-5{fill:#fff;}.cls-6{fill:#819b9a;}</style></defs><title>skill_icon2</title><rect class="cls-1" x="4.04" y="6.5" width="2.72" height="10.9" rx="0.67"/><path class="cls-2" d="M6.1,6.77a.4.4,0,0,1,.4.4v9.56a.4.4,0,0,1-.4.4H4.7a.39.39,0,0,1-.39-.4V7.17a.39.39,0,0,1,.39-.4H6.1m0-.27H4.7A.67.67,0,0,0,4,7.17v9.56a.67.67,0,0,0,.66.67H6.1a.66.66,0,0,0,.66-.67V7.17A.66.66,0,0,0,6.1,6.5Z"/><rect class="cls-3" x="10.72" y="3.29" width="3.96" height="10.4" rx="0.5" transform="translate(4.22 21.19) rotate(-90)"/><path class="cls-2" d="M17.41,6.77a.23.23,0,0,1,.23.23v3a.23.23,0,0,1-.23.23H8A.23.23,0,0,1,7.77,10V7A.23.23,0,0,1,8,6.77h9.41m0-.27H8a.5.5,0,0,0-.49.5v3a.5.5,0,0,0,.49.5h9.41a.51.51,0,0,0,.5-.5V7a.51.51,0,0,0-.5-.5Z"/><rect class="cls-4" x="9.61" y="9.1" width="6.19" height="10.4" rx="0.62" transform="translate(-1.6 27.01) rotate(-90)"/><path class="cls-2" d="M17.28,11.48a.36.36,0,0,1,.36.35v5a.36.36,0,0,1-.36.35H8.13a.36.36,0,0,1-.36-.35v-5a.36.36,0,0,1,.36-.35h9.15m0-.27H8.13a.62.62,0,0,0-.62.62v5a.62.62,0,0,0,.62.62h9.15a.63.63,0,0,0,.63-.62v-5a.63.63,0,0,0-.63-.62Z"/><polygon class="cls-5" points="10.04 15.81 11.76 13.66 13.27 15.81 10.04 15.81"/><path class="cls-2" d="M11.75,14.11l1,1.44H10.6l1.15-1.44m0-.45L10,15.81h3.23l-1.51-2.15Z"/><polygon class="cls-5" points="11.1 15.79 13.41 12.9 15.43 15.79 11.1 15.79"/><path class="cls-2" d="M13.4,13.35l1.52,2.17H11.66l1.74-2.17m0-.45L11.1,15.79h4.33l-2-2.89Z"/><polygon class="cls-6" points="2.84 9.4 2.57 9.4 2.57 5 6.97 5 6.97 5.27 2.84 5.27 2.84 9.4"/><rect class="cls-6" x="1.91" y="18.73" width="17.47" height="0.27"/><path class="cls-6" d="M21.06,18,20.21,17l-.66.44-.48-1.21-.58-2.11a.21.21,0,0,1,.08-.22.2.2,0,0,1,.23,0l3.12,1.66-.66.66.83.83Zm-.79-1.42.81,1,.64-.63-.84-.83.6-.6-2.7-1.43.54,2,.36.89Z"/></svg>