<svg id="圖層_1" data-name="圖層 1" xmlns="http://www.w3.org/2000/svg" width="24" height="24" viewBox="0 0 24 24"><defs><style>.cls-1{fill:#f0b4d0;}.cls-2{fill:#c789c0;}.cls-3{fill:#fff;}.cls-4{fill:#f3ed75;}.cls-5{fill:#edc5ea;}.cls-6{fill:#bbece9;}.cls-7{fill:#819b9a;}</style></defs><title>skill_icon2</title><rect class="cls-1" x="13.31" y="14.9" width="2.92" height="6.12" rx="0.33" transform="translate(-3.2 32.73) rotate(-90)"/><path class="cls-2" d="M17.5,16.77a.06.06,0,0,1,.06.06v2.26a.07.07,0,0,1-.06.07H12V16.83a.07.07,0,0,1,.07-.06H17.5m0-.26H12a.32.32,0,0,0-.33.32v2.26c0,.19-.11.33.07.33H17.5a.32.32,0,0,0,.32-.33V16.83a.32.32,0,0,0-.32-.32Z"/><path class="cls-3" d="M17.82,16.05v2.27a.32.32,0,0,1-.32.32H12a.32.32,0,0,1-.33-.32V16.05c0-.18.41-.32.59-.32h4.95C17.42,15.73,17.82,15.87,17.82,16.05Z"/><path class="cls-2" d="M17.24,16a.72.72,0,0,1,.32.11v2.22a.06.06,0,0,1-.06.06H12a.07.07,0,0,1-.07-.06V16.1a.76.76,0,0,1,.33-.11h4.95m0-.26H12.29c-.18,0-.59.14-.59.32v2.27a.32.32,0,0,0,.33.32H17.5a.32.32,0,0,0,.32-.32V16.05c0-.18-.4-.32-.58-.32Z"/><path class="cls-2" d="M13.16,16.54h.36c.08.16.14.28.17.36h0c0-.08.09-.2.17-.36h.37l-.38.6v.5h-.33v-.5Z"/><path class="cls-2" d="M14.41,16.54h.65v.23h-.33V17H15v.22h-.28v.2h.33v.24h-.65Z"/><path class="cls-2" d="M15.31,17.62v-.26a.63.63,0,0,0,.26.07.17.17,0,0,0,.1,0,.07.07,0,0,0,0-.06.14.14,0,0,0,0-.07l-.1-.07a.83.83,0,0,1-.24-.18.29.29,0,0,1-.08-.19.28.28,0,0,1,.12-.23.45.45,0,0,1,.3-.09.84.84,0,0,1,.27,0v.25a.69.69,0,0,0-.24-.06l-.09,0a.09.09,0,0,0,0,.06c0,.05.05.1.16.16a1,1,0,0,1,.19.14.28.28,0,0,1,.1.22.27.27,0,0,1-.13.23.56.56,0,0,1-.33.1A.86.86,0,0,1,15.31,17.62Z"/><path class="cls-4" d="M18.32,18.72l-.39-.91a.66.66,0,0,0-1.22.52l.76,1.79-.38.26a.54.54,0,0,0-.19.72l.56,1a1,1,0,0,0,.3.32l.81.5a.56.56,0,0,0,.53,0L21.33,22a.58.58,0,0,0,.35-.45l.14-1a1.35,1.35,0,0,0,0-.53l-.3-.95a.74.74,0,0,0-.93-.47l-.07,0-.21.08-.1-.05a1,1,0,0,0-.41-.11,1.1,1.1,0,0,0-.42.14l0,0a.46.46,0,0,0-.29-.13,1,1,0,0,0-.3,0,2,2,0,0,0-.37.14Z"/><path class="cls-2" d="M17.34,17.68a.36.36,0,0,1,.35.23l.39.91.11.25.24-.12h0a.82.82,0,0,1,.31-.12l.14,0H19a.19.19,0,0,1,.13.05l.14.14.17-.09,0,0a.68.68,0,0,1,.32-.11.66.66,0,0,1,.28.08l.08.05.12.06.11-.05.21-.08,0,0,.16,0a.47.47,0,0,1,.46.33l.29.95a1,1,0,0,1,0,.42l-.14,1a.32.32,0,0,1-.19.25L19,22.71a.28.28,0,0,1-.13,0,.3.3,0,0,1-.16,0l-.81-.5a.66.66,0,0,1-.21-.23l-.56-1a.28.28,0,0,1,.1-.38l.39-.26.17-.12L17.71,20,17,18.23a.4.4,0,0,1,.22-.51.53.53,0,0,1,.17,0h0m0-.25a.66.66,0,0,0-.63.9l.76,1.79-.38.26a.54.54,0,0,0-.19.72l.56,1a1,1,0,0,0,.3.32l.81.5a.55.55,0,0,0,.3.09A.59.59,0,0,0,19.1,23L21.33,22a.58.58,0,0,0,.35-.45l.14-1a1.35,1.35,0,0,0,0-.53l-.3-.95a.71.71,0,0,0-.7-.5.91.91,0,0,0-.23,0l-.07,0-.21.08-.1-.05a.94.94,0,0,0-.39-.11h0a1.1,1.1,0,0,0-.42.14l0,0a.46.46,0,0,0-.29-.13H18.9l-.19,0a2,2,0,0,0-.37.14h0l-.39-.91a.63.63,0,0,0-.59-.38Z"/><path class="cls-2" d="M18.63,19.85a.13.13,0,0,1-.12-.08l-.42-1.05a.14.14,0,0,1,.08-.17.13.13,0,0,1,.16.08l.42,1a.12.12,0,0,1-.07.17Z"/><path class="cls-2" d="M19.47,19.64a.13.13,0,0,1-.12-.09l-.21-.62a.13.13,0,0,1,.08-.17.13.13,0,0,1,.16.08l.21.63a.13.13,0,0,1-.08.17Z"/><path class="cls-2" d="M20.52,19.64a.11.11,0,0,1-.12-.09l-.21-.62a.13.13,0,0,1,.08-.17.13.13,0,0,1,.16.08l.21.63a.14.14,0,0,1-.08.17Z"/><rect class="cls-4" x="5.77" y="14.9" width="2.92" height="6.12" rx="0.33" transform="translate(-10.73 25.2) rotate(-90)"/><path class="cls-2" d="M10,16.77a.07.07,0,0,1,.07.06v2.26a.07.07,0,0,1-.07.07H4.5a.07.07,0,0,1-.07-.07V16.83a.07.07,0,0,1,.07-.06H10m0-.26H4.5a.32.32,0,0,0-.33.32v2.26a.33.33,0,0,0,.33.33H10a.32.32,0,0,0,.33-.33V16.83a.32.32,0,0,0-.33-.32Z"/><path class="cls-2" d="M6,17.53h.22l.44.59v-.59h.27v1H6.67L6.23,18v.62H6Z"/><path class="cls-2" d="M7.4,18.24v-.39c0-.21.14-.33.52-.33s.51.12.51.33v.39c0,.21-.13.34-.51.34S7.4,18.45,7.4,18.24Zm.7.05v-.48c0-.09,0-.16-.18-.16s-.18.07-.18.16v.48c0,.08,0,.15.18.15S8.1,18.37,8.1,18.29Z"/><rect class="cls-5" x="9.36" y="4.3" width="1.3" height="6.49" rx="0.47" transform="translate(2.47 17.56) rotate(-90)"/><path class="cls-2" d="M12.79,7.16a.21.21,0,0,1,.21.21v.35a.21.21,0,0,1-.21.22H7.24A.21.21,0,0,1,7,7.72V7.37a.21.21,0,0,1,.21-.21h5.55m0-.26H7.24a.47.47,0,0,0-.47.47v.35a.47.47,0,0,0,.47.47h5.55a.47.47,0,0,0,.47-.47V7.37a.47.47,0,0,0-.47-.47Z"/><rect class="cls-6" x="9.88" y="5.86" width="1.3" height="7.53" rx="0.51" transform="translate(0.91 20.16) rotate(-90)"/><path class="cls-2" d="M13.79,9.23a.25.25,0,0,1,.25.25v.29a.25.25,0,0,1-.25.24H7.27A.24.24,0,0,1,7,9.77V9.48a.25.25,0,0,1,.24-.25h6.52m0-.26H7.27a.5.5,0,0,0-.5.51v.29a.5.5,0,0,0,.5.5h6.52a.5.5,0,0,0,.51-.5V9.48A.51.51,0,0,0,13.79,9Z"/><rect class="cls-6" x="10.27" y="1.31" width="1.3" height="8.31" rx="0.53" transform="translate(5.46 16.39) rotate(-90)"/><path class="cls-2" d="M14.55,5.08a.27.27,0,0,1,.27.27v.23a.28.28,0,0,1-.27.28H7.3A.28.28,0,0,1,7,5.58V5.35a.27.27,0,0,1,.27-.27h7.25m0-.26H7.3a.53.53,0,0,0-.53.53v.23a.54.54,0,0,0,.53.54h7.25a.54.54,0,0,0,.53-.54V5.35a.53.53,0,0,0-.53-.53Z"/><path class="cls-7" d="M15.38,14.39H5.94a1,1,0,0,1-1-1V4a1,1,0,0,1,1-1h9.44a1,1,0,0,1,1,1V13.4A1,1,0,0,1,15.38,14.39ZM5.94,3.26A.73.73,0,0,0,5.21,4V13.4a.73.73,0,0,0,.73.73h9.44a.74.74,0,0,0,.74-.73V4a.74.74,0,0,0-.74-.73Z"/><path class="cls-7" d="M9,13.13a.65.65,0,1,1,.65-.65A.65.65,0,0,1,9,13.13Zm0-1a.39.39,0,0,0-.38.39.39.39,0,1,0,.77,0A.39.39,0,0,0,9,12.09Z"/><rect class="cls-7" x="10.53" y="11.96" width="1.04" height="1.04" rx="0.52"/><rect class="cls-7" x="12.35" y="11.96" width="1.04" height="1.04" rx="0.52"/></svg>