<svg id="圖層_1" data-name="圖層 1" xmlns="http://www.w3.org/2000/svg" width="24" height="24" viewBox="0 0 24 24"><defs><style>.cls-1{fill:#bbece9;}.cls-2{fill:#c789c0;}.cls-3{fill:#edc5ea;}.cls-4{fill:#fff;}.cls-5{fill:#f3ed75;}.cls-6{fill:#f8d28b;}.cls-7{fill:#819b9a;}</style></defs><title>skill_icon2</title><rect class="cls-1" x="6.93" y="9.69" width="6.86" height="13.86" rx="0.76" transform="translate(-6.26 26.98) rotate(-90)"/><path class="cls-2" d="M16.54,13.47A.48.48,0,0,1,17,14V19.3a.48.48,0,0,1-.48.47H4.19a.48.48,0,0,1-.48-.47V14a.48.48,0,0,1,.48-.48H16.54m0-.28H4.19a.76.76,0,0,0-.76.76V19.3a.76.76,0,0,0,.76.75H16.54a.76.76,0,0,0,.76-.75V14a.76.76,0,0,0-.76-.76Z"/><rect class="cls-3" x="5.68" y="1.84" width="9.37" height="13.86" rx="0.88" transform="translate(1.59 19.14) rotate(-90)"/><path class="cls-2" d="M16.41,4.37A.61.61,0,0,1,17,5v7.6a.61.61,0,0,1-.61.61H4.32a.61.61,0,0,1-.61-.61V5a.6.6,0,0,1,.61-.6H16.41m0-.28H4.32A.88.88,0,0,0,3.43,5v7.6a.89.89,0,0,0,.89.89H16.41a.89.89,0,0,0,.89-.89V5a.88.88,0,0,0-.89-.88Z"/><path class="cls-1" d="M17.3,5.77V4.7A.84.84,0,0,0,16.38,4h-12a.84.84,0,0,0-.92.75V5.77Z"/><path class="cls-2" d="M16.38,4.23c.34,0,.64.21.64.47v.79H3.71V4.7c0-.26.29-.47.64-.47h12m0-.28h-12a.84.84,0,0,0-.92.75V5.77H17.3V4.7A.84.84,0,0,0,16.38,4Z"/><path class="cls-4" d="M7,10.48H7a.14.14,0,0,1-.09-.08.15.15,0,0,1,0-.13l.87-2.8a.16.16,0,0,1,.08-.1.17.17,0,0,1,.12,0,.16.16,0,0,1,.1.08.19.19,0,0,1,0,.13l-.86,2.8A.17.17,0,0,1,7,10.48Z"/><path class="cls-4" d="M8.9,9.83a.16.16,0,0,1-.11-.05.15.15,0,0,1,0-.23l.64-.64-.64-.64a.17.17,0,0,1,0-.12.16.16,0,0,1,0-.11h0A.16.16,0,0,1,8.9,8h0A.17.17,0,0,1,9,8l.77.77a.18.18,0,0,1,0,.22L9,9.78A.17.17,0,0,1,8.9,9.83Z"/><path class="cls-4" d="M6.38,9.83a.18.18,0,0,1-.12-.05L5.51,9a.21.21,0,0,1,0-.12.18.18,0,0,1,0-.12L6.26,8a.17.17,0,0,1,.12,0h0a.16.16,0,0,1,.11,0h0a.16.16,0,0,1,0,.23l-.64.64.63.64a.15.15,0,0,1,0,.23A.16.16,0,0,1,6.38,9.83Z"/><path class="cls-2" d="M15.5,9.36a.07.07,0,0,1,.07.07V9.9a.07.07,0,0,1-.07.07H12.26a.07.07,0,0,1-.07-.07V9.43a.07.07,0,0,1,.07-.07H15.5m0-.28H12.26a.35.35,0,0,0-.35.35V9.9a.35.35,0,0,0,.35.35H15.5a.35.35,0,0,0,.35-.35V9.43a.35.35,0,0,0-.35-.35Z"/><rect class="cls-5" x="12.98" y="5.52" width="1.17" height="4.57" rx="0.37" transform="translate(21.36 -5.76) rotate(90)"/><path class="cls-2" d="M15.47,7.5a.09.09,0,0,1,.1.09V8a.09.09,0,0,1-.1.09H11.65A.09.09,0,0,1,11.56,8V7.59a.09.09,0,0,1,.09-.09h3.82m0-.28H11.65a.37.37,0,0,0-.37.37V8a.38.38,0,0,0,.37.37h3.82A.38.38,0,0,0,15.85,8V7.59a.37.37,0,0,0-.38-.37Z"/><rect class="cls-1" x="12.74" y="9.01" width="1.17" height="5.04" rx="0.39" transform="translate(24.85 -1.8) rotate(90)"/><path class="cls-2" d="M15.45,11.22a.12.12,0,0,1,.12.12v.38a.11.11,0,0,1-.12.11H11.2a.11.11,0,0,1-.11-.11v-.38a.12.12,0,0,1,.11-.12h4.25m0-.28H11.2a.39.39,0,0,0-.39.4v.38a.39.39,0,0,0,.39.39h4.25a.4.4,0,0,0,.4-.39v-.38a.4.4,0,0,0-.4-.4Z"/><ellipse class="cls-6" cx="10.15" cy="4.87" rx="0.42" ry="0.39"/><path class="cls-2" d="M10.15,4.76a.11.11,0,1,1,0,.22c-.07,0-.14-.05-.14-.11s.07-.11.14-.11m0-.28a.39.39,0,1,0,0,.78.39.39,0,1,0,0-.78Z"/><rect class="cls-5" x="5.7" y="14.45" width="1.16" height="0.84" rx="0.12"/><path class="cls-2" d="M6.58,14.73V15H6v-.29h.6m.16-.28H5.81a.12.12,0,0,0-.11.12v.61a.12.12,0,0,0,.11.12h.93a.13.13,0,0,0,.12-.12v-.61a.13.13,0,0,0-.12-.12Z"/><rect class="cls-5" x="7.32" y="14.45" width="1.16" height="0.84" rx="0.12"/><path class="cls-2" d="M8.2,14.73V15H7.6v-.29h.6m.16-.28H7.44a.12.12,0,0,0-.12.12v.61a.12.12,0,0,0,.12.12h.92a.13.13,0,0,0,.12-.12v-.61a.13.13,0,0,0-.12-.12Z"/><rect class="cls-5" x="8.94" y="14.45" width="1.16" height="0.84" rx="0.12"/><path class="cls-2" d="M9.82,14.73V15h-.6v-.29h.6m.16-.28H9.06a.12.12,0,0,0-.12.12v.61a.12.12,0,0,0,.12.12H10a.12.12,0,0,0,.12-.12v-.61a.12.12,0,0,0-.12-.12Z"/><rect class="cls-5" x="10.56" y="14.45" width="1.16" height="0.84" rx="0.12"/><path class="cls-2" d="M11.44,14.73V15h-.6v-.29h.6m.16-.28h-.92a.12.12,0,0,0-.12.12v.61a.12.12,0,0,0,.12.12h.92a.12.12,0,0,0,.12-.12v-.61a.12.12,0,0,0-.12-.12Z"/><rect class="cls-5" x="5.7" y="16.14" width="1.16" height="0.84" rx="0.12"/><path class="cls-2" d="M6.58,16.42v.28H6v-.28h.6m.16-.28H5.81a.11.11,0,0,0-.11.11v.61a.11.11,0,0,0,.11.12h.93a.12.12,0,0,0,.12-.12v-.61a.12.12,0,0,0-.12-.11Z"/><rect class="cls-5" x="7.32" y="16.14" width="1.16" height="0.84" rx="0.12"/><path class="cls-2" d="M8.2,16.42v.28H7.6v-.28h.6m.16-.28H7.44a.11.11,0,0,0-.12.11v.61a.12.12,0,0,0,.12.12h.92a.12.12,0,0,0,.12-.12v-.61a.12.12,0,0,0-.12-.11Z"/><rect class="cls-5" x="8.94" y="16.14" width="1.16" height="0.84" rx="0.12"/><path class="cls-2" d="M9.82,16.42v.28h-.6v-.28h.6m.16-.28H9.06a.11.11,0,0,0-.12.11v.61a.12.12,0,0,0,.12.12H10a.12.12,0,0,0,.12-.12v-.61a.11.11,0,0,0-.12-.11Z"/><rect class="cls-5" x="10.56" y="16.14" width="1.16" height="0.84" rx="0.12"/><path class="cls-2" d="M11.44,16.42v.28h-.6v-.28h.6m.16-.28h-.92a.11.11,0,0,0-.12.11v.61a.12.12,0,0,0,.12.12h.92a.12.12,0,0,0,.12-.12v-.61a.11.11,0,0,0-.12-.11Z"/><rect class="cls-5" x="12.18" y="14.45" width="1.16" height="0.84" rx="0.12"/><path class="cls-2" d="M13.06,14.73V15h-.6v-.29h.6m.16-.28H12.3a.13.13,0,0,0-.12.12v.61a.13.13,0,0,0,.12.12h.92a.12.12,0,0,0,.12-.12v-.61a.12.12,0,0,0-.12-.12Z"/><rect class="cls-5" x="13.8" y="14.45" width="1.16" height="0.84" rx="0.12"/><path class="cls-2" d="M14.68,14.73V15h-.6v-.29h.6m.17-.28h-.93a.13.13,0,0,0-.12.12v.61a.13.13,0,0,0,.12.12h.93a.12.12,0,0,0,.11-.12v-.61a.12.12,0,0,0-.11-.12Z"/><rect class="cls-5" x="12.18" y="16.14" width="1.16" height="0.84" rx="0.12"/><path class="cls-2" d="M13.06,16.42v.28h-.6v-.28h.6m.16-.28H12.3a.12.12,0,0,0-.12.11v.61a.12.12,0,0,0,.12.12h.92a.12.12,0,0,0,.12-.12v-.61a.11.11,0,0,0-.12-.11Z"/><rect class="cls-5" x="13.8" y="16.14" width="1.16" height="0.84" rx="0.12"/><path class="cls-2" d="M14.68,16.42v.28h-.6v-.28h.6m.17-.28h-.93a.12.12,0,0,0-.12.11v.61a.12.12,0,0,0,.12.12h.93a.11.11,0,0,0,.11-.12v-.61a.11.11,0,0,0-.11-.11Z"/><rect class="cls-3" x="8.22" y="17.82" width="4.21" height="0.84" rx="0.22"/><path class="cls-2" d="M12.16,18.1v.28H8.5V18.1h3.66m.05-.28H8.45a.22.22,0,0,0-.23.22v.4a.22.22,0,0,0,.23.22h3.76a.22.22,0,0,0,.23-.22V18a.22.22,0,0,0-.23-.22Z"/><rect class="cls-3" x="13.28" y="17.82" width="0.91" height="0.84" rx="0.1"/><path class="cls-2" d="M13.9,18.1v.28h-.34V18.1h.34m.18-.28h-.7a.1.1,0,0,0-.1.11v.63a.09.09,0,0,0,.1.1h.7a.09.09,0,0,0,.1-.1v-.63a.1.1,0,0,0-.1-.11Z"/><rect class="cls-3" x="6.54" y="17.82" width="0.91" height="0.84" rx="0.1"/><path class="cls-2" d="M7.17,18.1v.28H6.82V18.1h.35m.17-.28h-.7a.11.11,0,0,0-.1.11v.63a.1.1,0,0,0,.1.1h.7a.1.1,0,0,0,.11-.1v-.63a.11.11,0,0,0-.11-.11Z"/><path class="cls-7" d="M20.29,19.29A2.19,2.19,0,0,1,19,18.68h0c-.59-.49-1.12-1.25-1-1.82s.86-1,1.82-.77,2.09,1,1.91,1.86a2.32,2.32,0,0,1-1.31,1.33Zm-1.1-.82a1.81,1.81,0,0,0,1.19.53,2.11,2.11,0,0,0,1.09-1.11c.13-.67-.77-1.33-1.7-1.53-.63-.13-1.36-.05-1.48.55-.09.39.29,1.05.9,1.56Z"/><path class="cls-7" d="M19.57,17c-.56-.33-.7-.31-.71-.31a.08.08,0,0,0,.05-.09l-.28,0a.22.22,0,0,1,.09-.18c.11-.07.31-.09,1,.31Z"/><path class="cls-7" d="M19.5,17.8a.24.24,0,0,1-.11-.19c0-.27.32-.67,1.05-1.23l.17.23c-1,.74-.94,1-.94,1s0,0,0,0Z"/><path class="cls-7" d="M23.29,19.58a5.83,5.83,0,0,0-2.4-1.52l.09-.27a6.17,6.17,0,0,1,2.53,1.61Z"/><rect class="cls-7" x="17.3" y="14.45" width="2.8" height="0.28"/><rect class="cls-7" x="1" y="14.45" width="2.29" height="0.28"/></svg>