<svg id="圖層_1" data-name="圖層 1" xmlns="http://www.w3.org/2000/svg" width="24" height="24" viewBox="0 0 24 24"><defs><style>.cls-1{fill:#f3ed75;}.cls-2{fill:#c789c0;}.cls-3{fill:#bbece9;}.cls-4{fill:#819b9a;}.cls-5{fill:#edc5ea;}.cls-6{fill:#fff;}.cls-7{fill:#f8d28b;}</style></defs><title>skill_icon2</title><rect class="cls-1" x="12.04" y="4.71" width="3.98" height="1.14" rx="0.12"/><path class="cls-2" d="M15.74,5v.57H12.33V5h3.41m.17-.28H12.16a.12.12,0,0,0-.12.11v.91a.12.12,0,0,0,.12.11h3.75A.11.11,0,0,0,16,5.73V4.82a.11.11,0,0,0-.12-.11Z"/><rect class="cls-3" x="2.68" y="12.49" width="16.59" height="1.01" rx="0.23" transform="translate(-2.03 23.97) rotate(-90)"/><path class="cls-2" d="M11.19,5V21h-.44V5h.44m.06-.28h-.56a.23.23,0,0,0-.23.22V21.07a.23.23,0,0,0,.23.22h.56a.23.23,0,0,0,.23-.22V4.93a.23.23,0,0,0-.23-.22Z"/><rect class="cls-3" x="9.58" y="16.88" width="7.91" height="0.92" rx="0.15" transform="translate(10.85 39.17) rotate(-135)"/><path class="cls-2" d="M11.07,14.62l5.19,5.19-.25.25-5.19-5.19.25-.25m0-.34a.15.15,0,0,0-.11,0l-.44.44a.14.14,0,0,0,0,.21l5.38,5.39a.21.21,0,0,0,.11,0,.18.18,0,0,0,.1,0l.44-.44a.14.14,0,0,0,0-.21l-5.38-5.39a.14.14,0,0,0-.1,0Z"/><rect class="cls-3" x="4.61" y="17.25" width="7.91" height="0.92" rx="0.15" transform="translate(-10.01 11.25) rotate(-45)"/><path class="cls-2" d="M11,15l.25.25L6.1,20.43l-.25-.25L11,15m0-.34a.12.12,0,0,0-.1,0L5.55,20.07a.14.14,0,0,0,0,.21l.44.44a.16.16,0,0,0,.11.05.14.14,0,0,0,.1-.05l5.39-5.38a.17.17,0,0,0,0-.21l-.44-.44a.15.15,0,0,0-.11,0Z"/><path class="cls-4" d="M18,14a.8.8,0,0,1-.36.51s0,0-.05.06a.11.11,0,0,0,0,.08,1.63,1.63,0,0,0,1.79.26A1.07,1.07,0,0,0,20,14l.68-.3,2-.91a.4.4,0,0,0,.2-.52.4.4,0,0,0-.52-.19l-2,.91-.68.3a1,1,0,0,0-1.09-.18A1,1,0,0,0,18,14Zm.39-.57a1.21,1.21,0,0,0,1.14-.07l.07.07a1.83,1.83,0,0,1-1.41.46A1,1,0,0,1,18.35,13.44Zm-.57,1.16h0a2.21,2.21,0,0,0,2-.86s0,.07,0,.11a1.6,1.6,0,0,1-.69.71,1.72,1.72,0,0,1-1.29,0Zm1.94-.93a2.26,2.26,0,0,1-1.3.84,2,2,0,0,1-.57,0,1,1,0,0,0,.13-.15,2.58,2.58,0,0,0,1.7-.79l0,.06ZM18.13,14a.17.17,0,0,1,0-.07,1.91,1.91,0,0,0,1.47-.47l0,0a2.57,2.57,0,0,1-1.63.79A.89.89,0,0,0,18.13,14Zm1.16.73a1.35,1.35,0,0,1-1.33,0,1.58,1.58,0,0,0,1.69-.56,1.74,1.74,0,0,0,.13-.2A.85.85,0,0,1,19.29,14.76Zm1-1.6.18.4-.14.06-.18-.4Zm2.1-.94a.22.22,0,0,1,.29.11.21.21,0,0,1-.11.28l-1.95.88-.17-.4Zm-2.63,1.17.33-.14.18.4-.33.14Zm-.34-.06a1.13,1.13,0,0,1-1.05.06.79.79,0,0,1,.23-.14A.8.8,0,0,1,19.44,13.33Z"/><rect class="cls-5" x="5.91" y="5.99" width="10.03" height="10.81" rx="0.58"/><path class="cls-2" d="M15.36,6.27a.29.29,0,0,1,.29.29v9.66a.29.29,0,0,1-.29.29H6.49a.3.3,0,0,1-.3-.29V6.56a.3.3,0,0,1,.3-.29h8.87m0-.28H6.49a.57.57,0,0,0-.58.57v9.66a.58.58,0,0,0,.58.58h8.87a.58.58,0,0,0,.58-.58V6.56A.57.57,0,0,0,15.36,6Z"/><rect class="cls-1" x="5.41" y="15.66" width="11.03" height="1.28" rx="0.21"/><path class="cls-2" d="M16.15,15.94v.72H5.7v-.72H16.15m.08-.28H5.62a.21.21,0,0,0-.21.21v.86a.21.21,0,0,0,.21.21H16.23a.21.21,0,0,0,.21-.21v-.86a.21.21,0,0,0-.21-.21Z"/><polygon class="cls-3" points="15.38 11.99 20.39 6.13 21.12 6.92 16.14 12.41 15.38 11.99"/><path class="cls-2" d="M20.4,6.56l.33.37-4.65,5.12-.25-.14L20.4,6.56m0-.43-5,5.87.76.41,5-5.49-.73-.79Z"/><path class="cls-3" d="M14.66,12.7c.26.12.12.52.34.61s.24-.11.36,0a.33.33,0,0,1,0,.37,1.79,1.79,0,0,0,.75-1.25L15.68,12a1.6,1.6,0,0,0-1.16.66Z"/><path class="cls-2" d="M15.59,12.3l.26.23a1.64,1.64,0,0,1-.28.58l0,0a.43.43,0,0,0-.28-.11l-.14,0v0a.79.79,0,0,0-.16-.39,1.27,1.27,0,0,1,.62-.29m.09-.3a1.6,1.6,0,0,0-1.16.66l.14,0c.26.12.12.52.34.61h.05c.07,0,.14-.05.22-.05a.16.16,0,0,1,.09,0,.33.33,0,0,1,0,.37,1.79,1.79,0,0,0,.75-1.25L15.68,12Z"/><path class="cls-3" d="M15.4,13.88a.2.2,0,0,1-.13,0,.2.2,0,0,1-.08-.23.35.35,0,0,0,0-.12.43.43,0,0,1-.17,0h0a.28.28,0,0,1-.13,0,.49.49,0,0,1-.28-.43c0-.1,0-.17-.08-.18l-.07,0a.19.19,0,0,1-.17-.12.2.2,0,0,1,0-.21,1.85,1.85,0,0,1,1.32-.75.27.27,0,0,1,.17.06l.47.41a.22.22,0,0,1,.07.17,2,2,0,0,1-.84,1.41A.22.22,0,0,1,15.4,13.88Zm-.13-.82a.36.36,0,0,1,.24.09l.06.07a1.57,1.57,0,0,0,.35-.72l-.31-.28a1.37,1.37,0,0,0-.74.37.65.65,0,0,1,.19.4l0,.11A.44.44,0,0,1,15.27,13.06Z"/><path class="cls-2" d="M15.68,11.79h0a1.85,1.85,0,0,0-1.32.75.2.2,0,0,0,0,.21.19.19,0,0,0,.17.12l.07,0s.06.08.08.18a.49.49,0,0,0,.28.43.28.28,0,0,0,.13,0h0a.43.43,0,0,0,.17,0,.35.35,0,0,1,0,.12.2.2,0,0,0,.08.23.2.2,0,0,0,.13,0,.22.22,0,0,0,.13,0,2,2,0,0,0,.84-1.41.22.22,0,0,0-.07-.17l-.47-.41a.22.22,0,0,0-.15-.06Zm-.59,1.31,0-.11a.65.65,0,0,0-.19-.4,1.37,1.37,0,0,1,.74-.37l.31.28a1.57,1.57,0,0,1-.35.72l-.06-.07a.36.36,0,0,0-.24-.09.44.44,0,0,0-.18,0Z"/><path class="cls-3" d="M15.36,13.3c-.12-.1-.25.06-.36,0s-.08-.49-.34-.61l-.14,0A3.24,3.24,0,0,0,14,14.23a3,3,0,0,0,1.43-.56A.33.33,0,0,0,15.36,13.3Z"/><path class="cls-2" d="M14.57,13.1a.57.57,0,0,0,.33.47l.09,0a3.21,3.21,0,0,1-.68.27,2.8,2.8,0,0,1,.26-.77m-.05-.44A3.24,3.24,0,0,0,14,14.23a3,3,0,0,0,1.43-.56.33.33,0,0,0,0-.37.16.16,0,0,0-.09,0c-.08,0-.15.05-.22.05H15c-.22-.09-.08-.49-.34-.61l-.14,0Z"/><path class="cls-3" d="M14,14.44a.27.27,0,0,1-.15,0,.23.23,0,0,1-.07-.17,3.4,3.4,0,0,1,.59-1.68.21.21,0,0,1,.2-.08.48.48,0,0,1,.21,0,.57.57,0,0,1,.31.48l0,.11a.44.44,0,0,1,.18,0,.36.36,0,0,1,.24.09c.09.07.22.25.09.59a.23.23,0,0,1-.07.1,3.37,3.37,0,0,1-1.53.6Zm.63-1.52A3.07,3.07,0,0,0,14.22,14a2.79,2.79,0,0,0,1-.42s0,0,0-.06a.44.44,0,0,1-.3,0,.49.49,0,0,1-.28-.43C14.62,13,14.61,13,14.6,12.92Z"/><path class="cls-2" d="M14.52,12.46a.23.23,0,0,0-.18.08,3.4,3.4,0,0,0-.59,1.68.23.23,0,0,0,.07.17.27.27,0,0,0,.15,0h0a3.37,3.37,0,0,0,1.53-.6.23.23,0,0,0,.07-.1c.13-.34,0-.52-.09-.59a.36.36,0,0,0-.24-.09.44.44,0,0,0-.18,0l0-.11a.57.57,0,0,0-.31-.48.48.48,0,0,0-.21,0ZM14.22,14a3.07,3.07,0,0,1,.38-1.05s0,.09,0,.15a.49.49,0,0,0,.28.43l.12,0a.48.48,0,0,0,.18,0s0,0,0,.06a2.79,2.79,0,0,1-1,.42Z"/><path class="cls-4" d="M19.35,17.5a.27.27,0,0,1-.12,0l-.58-.36a.21.21,0,0,1-.1-.14.22.22,0,0,1,0-.16l.4-.65.06-.07a.15.15,0,0,1,.07,0l3-.88h0l.25-.07a.7.7,0,0,1,.55.06.71.71,0,0,1,.31.46h0a.82.82,0,0,1-.56.91l-.24.07h0l-3,.88Zm0-.27h0Zm-.52-.33.5.31,2.93-.86h0l.26-.08a.52.52,0,0,0,.36-.59.38.38,0,0,0-.18-.26.39.39,0,0,0-.32,0l-.26.08h0l-2.94.86Z"/><path class="cls-4" d="M22,16.58l-.08,0a.13.13,0,0,1-.06-.1l-.17-.87a.14.14,0,0,1,.1-.16l.26-.08a.14.14,0,0,1,.11,0,.13.13,0,0,1,.07.09l.16.87a.14.14,0,0,1-.1.17l-.25.07Z"/><path class="cls-4" d="M19.29,17.46l-.08,0-.28-.17a.13.13,0,0,1-.06-.1l-.11-.56a.12.12,0,0,1,0-.1L19,16.2a.14.14,0,0,1,.15-.06.14.14,0,0,1,.11.11l.2,1a.17.17,0,0,1-.06.15Z"/><path class="cls-4" d="M19,17.18l-.08,0L18.73,17a.15.15,0,0,1,0-.2l.14-.23a.14.14,0,0,1,.15-.06.14.14,0,0,1,.11.11l.07.36a.13.13,0,0,1-.06.14A.11.11,0,0,1,19,17.18Z"/><circle class="cls-6" cx="10.91" cy="11.25" r="2.56"/><path class="cls-2" d="M10.91,9a2.28,2.28,0,1,1-2.28,2.28A2.28,2.28,0,0,1,10.91,9m0-.28a2.56,2.56,0,1,0,2.56,2.56,2.56,2.56,0,0,0-2.56-2.56Z"/><path class="cls-7" d="M11.73,9.8a.31.31,0,0,1,0,.62.31.31,0,1,1,0-.62Z"/><path class="cls-2" d="M11.73,10.08a0,0,0,0,1,0,0s0,0,0,0l0,0s0,0,0,0m0-.28a.31.31,0,1,0,0,.62.31.31,0,0,0,0-.62Z"/><path class="cls-7" d="M10,9.8a.31.31,0,1,1-.31.31A.31.31,0,0,1,10,9.8Z"/><path class="cls-2" d="M10,10.08a0,0,0,0,1,0,0s0,0,0,0l0,0a0,0,0,0,1,0,0m0-.28a.31.31,0,1,0,.31.31A.31.31,0,0,0,10,9.8Z"/><path class="cls-2" d="M12.28,11.53a1.31,1.31,0,0,1-2.56,0h2.56m.31-.28H9.4a1.6,1.6,0,0,0,3.19,0Z"/><path class="cls-3" d="M9.7,9s-.64-.73.5-1.3,2.27,1.14,4,0c0,0,.05,2.07-1.4,1.75S12.05,9.72,9.7,9Z"/><path class="cls-2" d="M10.71,7.86a3,3,0,0,1,.89.22,4.05,4.05,0,0,0,1.35.3,2.25,2.25,0,0,0,.91-.19,1.63,1.63,0,0,1-.34.82.6.6,0,0,1-.44.18.91.91,0,0,1-.23,0A4.31,4.31,0,0,0,12,9.05l-.32,0-.25,0a5.61,5.61,0,0,1-1.57-.34.49.49,0,0,1-.07-.31c0-.17.21-.34.51-.49a.86.86,0,0,1,.39-.09m0-.29a1.19,1.19,0,0,0-.51.12C9.06,8.26,9.7,9,9.7,9a6.49,6.49,0,0,0,1.75.38c.22,0,.35,0,.57,0a3.65,3.65,0,0,1,.76.11l.3,0c1.15,0,1.1-1.78,1.1-1.78a2.17,2.17,0,0,1-1.23.4c-.86,0-1.56-.52-2.24-.52Z"/><rect class="cls-3" x="2.9" y="6.98" width="1.47" height="1.47"/><path class="cls-2" d="M4.08,7.27v.9h-.9v-.9h.9M4.37,7H2.9V8.45H4.37V7Z"/><rect class="cls-7" x="2.9" y="9.39" width="1.47" height="1.47"/><path class="cls-2" d="M4.08,9.67v.9h-.9v-.9h.9m.29-.28H2.9v1.47H4.37V9.39Z"/><rect class="cls-5" x="2.9" y="11.79" width="1.47" height="1.47"/><path class="cls-2" d="M4.08,12.08V13h-.9v-.9h.9m.29-.29H2.9v1.48H4.37V11.79Z"/><rect class="cls-6" x="2.9" y="14.2" width="1.47" height="1.47"/><path class="cls-2" d="M4.08,14.49v.9h-.9v-.9h.9m.29-.29H2.9v1.47H4.37V14.2Z"/><path class="cls-4" d="M4.34,18.35H2.92a.14.14,0,0,1-.14-.14V16.79a.15.15,0,0,1,.14-.15H4.34a.15.15,0,0,1,.14.15v1.42A.14.14,0,0,1,4.34,18.35Zm-1.28-.28H4.2V16.93H3.06Z"/></svg>