<svg xmlns="http://www.w3.org/2000/svg" viewBox="5 6.9 90 86.19"><g fill="#f6cb4c"><path d="M91.4 27.59C86.9 17.2 78.44 10.08 67.32 7.79c-10.18-2.08-23.3-.61-31.96 5.6-3.02-1.69-6.63-.08-9.57 1.25-4.03 1.82-8.04 4.26-10.77 7.8-2.92 3.81-4.5 8.3-5.86 12.84A103.7 103.7 0 0 0 5.74 51.1a79.56 79.56 0 0 0-.6 15.49c.25 4.4.75 9.25 2.52 13.34 3.95 9.1 13.78 9.12 21.71 5.4a33.1 33.1 0 0 0 21.71 7.77c8.94-.15 17.44-4.5 23.27-11.16 2.22 1.17 4.45 2.46 6.81 3.29 2.12.74 3.86-1.06 4.94-2.6 3.82-5.39 5.45-11.86 6.8-18.2 2.56-12.08 3.53-25.24-1.5-36.83zm-39.54 62.9c-10.3.73-20.53-4.76-26.22-13.24-6.1-9.13-6.46-20.05-6.4-30.66a49.07 49.07 0 0 0 3.58-.66c2.25-.52 2.05-3.29 2.47-5.07.95-3.97 2.65-7.9 4.84-11.45a35.03 35.03 0 0 0-.5 6.54c.04 2.27.08 5.08 1.58 6.9.58.7 1.78.74 2.6.8 2.04.13 4.1.15 6.13.23 13.4.5 27.19 2.05 40.47-.26.65 10.3.72 21.06-3.88 30.53-4.56 9.42-14.31 15.6-24.67 16.34zM13.24 66.94a70.11 70.11 0 0 0 5.6 1.17c.39 1.38.85 2.75 1.38 4.1a6.32 6.32 0 0 1-8.68-3.75c-1.43-4.07 1.86-7.76 5.78-8.08.2 1.68.48 3.35.83 5a71.5 71.5 0 0 1-4.23-.92c-1.6-.4-2.28 2.07-.68 2.48zm74.65 6.52a40.04 40.04 0 0 1-4 7.88c-1.48 2.41-5.45.03-7.92-1.42a33.11 33.11 0 0 0 1.56-2.25 34 34 0 0 0 3.6-7.99 7.08 7.08 0 0 0 7.98-.2 65.95 65.95 0 0 1-1.22 3.98zm-6.04-6.44a48.3 48.3 0 0 0 .8-4.2 72.06 72.06 0 0 1 5.68-1.15c1.63-.25.94-2.72-.68-2.47a73.3 73.3 0 0 0-4.68.92 71.01 71.01 0 0 0 .27-3.87c2.1-.66 4.04-.94 5.61 1.12a8.56 8.56 0 0 1 1.6 5.46c-.1 4.35-5.29 7.09-8.6 4.2zm9.76-9.97a13.02 13.02 0 0 0-1.02-1.6c-1.9-2.51-4.58-2.6-7.28-1.9.03-3.52-.14-7.02-.36-10.42.6-.13 1.19-.25 1.78-.4 1.6-.38.93-2.86-.68-2.47-12.15 2.97-24.57 1.79-36.94 1.32l-9.2-.35c-.94-.03-4.76.37-5.2-.73-.52-1.34-.45-3.13-.51-4.56a30.72 30.72 0 0 1 4.2-16.51c.81-1.44-1.4-2.73-2.22-1.3a34.25 34.25 0 0 0-2.06 4.25 44.2 44.2 0 0 0-7.46 12.3 40.2 40.2 0 0 0-2.33 7.77c-.43 2.37-7.08 2.05-9.14 2.08-1.65.03-1.66 2.6 0 2.57a45.04 45.04 0 0 0 3.49-.2c-.02 3.67.05 7.32.37 10.92-5.43.44-9.03 5.16-8.17 10.6.93 5.81 7.43 8.17 12.36 6.12a36.47 36.47 0 0 0 2.62 4.64 29.4 29.4 0 0 0 3.48 4.25c-3.8 1.67-7.79 2.46-11.86 1.1-4.04-1.36-5.7-5.5-6.59-9.29-1.94-8.2-1.63-17.05-.4-25.35 1.14-7.8 3-16.35 6.83-23.31 2-3.64 5.16-6.17 8.71-8.19 2.79-1.58 7.74-4.64 10.76-2.3.62.47 1.23.22 1.56-.28 7.58-5.9 19.48-7.1 28.7-5.8 10 1.4 18.05 7.18 22.8 16.03 5.06 9.44 5.24 20.61 3.76 31z"/><path d="M43.68 54.9a3.24 3.24 0 0 0-.77-1.08c.04-.53-.23-1.04-.92-1.15-2.36-.36-5.03.71-5.54 3.26-.5 2.49 1.86 5 4.37 4.57 2.63-.45 3.88-3.28 2.86-5.6zm18.67-1.08c.04-.53-.23-1.04-.92-1.15-2.35-.36-5.02.71-5.54 3.26-.5 2.49 1.86 5 4.37 4.57 2.63-.45 3.89-3.28 2.86-5.6a3.2 3.2 0 0 0-.77-1.08zm-30.12-2.9c4.19-2.36 8.9-2.63 13.36-.9 1.55.6 2.2-1.88.68-2.47a17.85 17.85 0 0 0-15.34 1.16c-1.44.8-.14 3.02 1.3 2.2zM55.8 49.8a12.95 12.95 0 0 1 10.64.52c1.47.75 2.77-1.46 1.3-2.21a15.47 15.47 0 0 0-12.62-.78c-1.54.57-.88 3.05.68 2.47zM44.92 67.9c.69 2.16 2.92 3.03 4.96 3.3a6.18 6.18 0 0 0 5.76-2.2c1.3-1.68.79-4.34-.28-5.98-.9-1.38-3.12-.1-2.21 1.3 1.32 2.01.57 4.06-1.9 4.32a4.6 4.6 0 0 1-3.32-.76c-.74-.58-1.06-2-.17-2.59 1.37-.9.09-3.13-1.3-2.21-1.64 1.1-2.12 2.98-1.54 4.83z"/><path d="M58.78 70.18c-2 1.67-3.95 3.54-6.18 4.9-2.92 1.78-6.69-1.58-9.12-3.03-1.43-.85-2.72 1.37-1.3 2.21 2.58 1.54 6.07 4.56 9.33 3.89 3.56-.74 6.38-3.91 9.08-6.16 1.28-1.06-.55-2.86-1.81-1.81zm-28.6-7.03-3.38 4.01c-1.05 1.26.75 3.08 1.82 1.81l3.38-4c1.06-1.27-.75-3.1-1.82-1.82zm5.27 1.5a40.63 40.63 0 0 0-3.4 3.97c-.42.56-.09 1.44.46 1.76.66.38 1.34.1 1.76-.46a36.58 36.58 0 0 1 3-3.47c1.16-1.17-.66-2.99-1.82-1.8zm31.32-1.87a24.12 24.12 0 0 0-3.07 3.86c-.9 1.4 1.33 2.69 2.22 1.3a20.74 20.74 0 0 1 2.66-3.34c1.15-1.19-.66-3-1.81-1.82zm4.75 1.42a27.8 27.8 0 0 1-3.1 3.36c-1.22 1.12.6 2.93 1.81 1.82a27.23 27.23 0 0 0 3.1-3.37c.43-.55.54-1.28 0-1.81-.44-.45-1.38-.55-1.8 0z"/></g></svg>