<svg id="圖層_1" data-name="圖層 1" xmlns="http://www.w3.org/2000/svg" width="24" height="24" viewBox="0 0 24 24"><defs><style>.cls-1{fill:#819b9a;}.cls-2{fill:#bbece9;}.cls-3{fill:#c789c0;}.cls-4{fill:#fff;}.cls-5{fill:#f3ed75;}</style></defs><title>skill_icon2</title><path class="cls-1" d="M9.82,18.18H3.41a.64.64,0,0,1-.64-.64V7.72a.64.64,0,0,1,.64-.64H9.82a.64.64,0,0,1,.63.64v9.82A.64.64,0,0,1,9.82,18.18ZM3.41,7.36a.36.36,0,0,0-.36.36v9.82a.36.36,0,0,0,.36.35H9.82a.35.35,0,0,0,.35-.35V7.72a.36.36,0,0,0-.35-.36Z"/><path class="cls-2" d="M6.7,16.29h7.7a6.07,6.07,0,1,0-7.7,0Z"/><path class="cls-3" d="M10.55,5.81A5.79,5.79,0,0,1,14.29,16H6.8a5.79,5.79,0,0,1,3.75-10.2m0-.28A6.07,6.07,0,0,0,6.7,16.29h7.7A6.07,6.07,0,0,0,10.55,5.53Z"/><path class="cls-2" d="M15.52,18.91H5.94a.29.29,0,0,1-.24-.47L6.93,17a.28.28,0,0,1,.23-.11H14.3a.28.28,0,0,1,.23.11l1.23,1.45A.29.29,0,0,1,15.52,18.91Z"/><path class="cls-3" d="M14.3,17.17h0l1.22,1.44H5.92l1.22-1.45H14.3m0-.29H7.16a.28.28,0,0,0-.23.11L5.7,18.44a.29.29,0,0,0,.24.47h9.58a.29.29,0,0,0,.24-.47L14.53,17a.28.28,0,0,0-.23-.11Z"/><path class="cls-4" d="M7.34,15.39h6.42a5.06,5.06,0,1,0-6.42,0Z"/><path class="cls-1" d="M20.57,13.73a.48.48,0,0,1-.2,0,.64.64,0,0,1-.38-.32.63.63,0,0,1,0-.5.6.6,0,0,1,.33-.38.62.62,0,0,1,.5,0,.67.67,0,0,1,.38.32.69.69,0,0,1,0,.51A.67.67,0,0,1,20.57,13.73Zm0-1a.37.37,0,0,0-.35.26.36.36,0,0,0,.24.46.37.37,0,0,0,.47-.23.41.41,0,0,0,0-.29.39.39,0,0,0-.22-.18A.25.25,0,0,0,20.57,12.7Z"/><path class="cls-1" d="M19.42,13.17h0l-5.11-.11a.15.15,0,0,1-.14-.15.14.14,0,0,1,.14-.14h0l5.12.11a.15.15,0,0,1,.14.15A.14.14,0,0,1,19.42,13.17Z"/><path class="cls-1" d="M14.08,11.21a.14.14,0,0,1-.12-.06.15.15,0,0,1,0-.2l1.64-1.28a.12.12,0,0,1,.09,0h3.41a.14.14,0,0,1,0,.28H15.77l-1.61,1.26A.11.11,0,0,1,14.08,11.21Z"/><path class="cls-1" d="M20.57,10.44a.66.66,0,0,1-.65-.57.66.66,0,1,1,.74.57Zm0-1h-.05a.33.33,0,0,0-.24.14.4.4,0,0,0-.08.28.41.41,0,0,0,.15.24.34.34,0,0,0,.27.07.35.35,0,0,0,.25-.14.34.34,0,0,0,.07-.27.35.35,0,0,0-.14-.25A.4.4,0,0,0,20.57,9.41Z"/><path class="cls-1" d="M13.72,9.73h0a.14.14,0,0,1-.1-.17l.85-3.22a.14.14,0,0,1,.14-.1h2.19l.53-1.06a.12.12,0,0,1,.11-.08.15.15,0,0,1,.13,0l.81,1.09h1.07a.14.14,0,0,1,0,.28H18.28a.14.14,0,0,1-.12-.06l-.71-1L17,6.43a.13.13,0,0,1-.13.08H14.69l-.83,3.11A.14.14,0,0,1,13.72,9.73Z"/><path class="cls-1" d="M20.57,7a.62.62,0,0,1-.39-.14A.65.65,0,0,1,20.05,6a.64.64,0,0,1,.43-.25.66.66,0,0,1,.62,1,.64.64,0,0,1-.44.25Zm0-1h-.05a.38.38,0,0,0-.24.15.36.36,0,0,0,.34.59.38.38,0,0,0,.18-.67A.48.48,0,0,0,20.57,6Z"/><path class="cls-5" d="M8.08,13.55s.28,1.06,1.24.93l.16,0s.14.6.85-.08v.54a.68.68,0,0,0,.63,0s.16-1.31.63-1.63c0,0,1.63.7,1.67-1.06,0,0,1.45-.05,1.71-1a1.61,1.61,0,0,0,0-.69c-.28-1.71-2.31-2.58-3.84-2.61A5.91,5.91,0,0,0,9.87,8a3.6,3.6,0,0,0-1.36.56,3,3,0,0,0-1,1,4.29,4.29,0,0,0-.44,1.29S6.69,13.6,8.08,13.55Z"/><path class="cls-3" d="M11,8.19h.1c1.32,0,3.3.78,3.57,2.37a1.39,1.39,0,0,1,0,.58c-.2.74-1.43.8-1.44.8H13v.27c0,.82-.42.92-.71.92A1.58,1.58,0,0,1,11.7,13L11.56,13l-.13.09a2.69,2.69,0,0,0-.73,1.66h-.08v-1l-.49.46a.84.84,0,0,1-.37.25v0l-.06-.29-.28.08-.13,0H9.16c-.59,0-.79-.71-.8-.74l-.06-.22H8a.5.5,0,0,1-.4-.17A3.4,3.4,0,0,1,7.4,11a4.13,4.13,0,0,1,.41-1.2,2.63,2.63,0,0,1,.87-.95A3.16,3.16,0,0,1,9.93,8.3,5.44,5.44,0,0,1,11,8.19m0-.28A5.54,5.54,0,0,0,9.87,8a3.6,3.6,0,0,0-1.36.56,3,3,0,0,0-1,1,4.29,4.29,0,0,0-.44,1.29S6.7,13.55,8,13.55h0s.25.95,1.08.95l.16,0,.16,0a.3.3,0,0,0,.28.24.94.94,0,0,0,.57-.32v.54a1,1,0,0,0,.36.08.45.45,0,0,0,.27-.08s.16-1.31.63-1.63a1.91,1.91,0,0,0,.68.14c.45,0,1-.22,1-1.2,0,0,1.45-.05,1.71-1a1.61,1.61,0,0,0,0-.69c-.28-1.71-2.31-2.58-3.84-2.61Z"/></svg>