<svg id="圖層_1" data-name="圖層 1" xmlns="http://www.w3.org/2000/svg" width="24" height="24" viewBox="0 0 24 24"><defs><style>.cls-1{fill:#edc5ea;}.cls-2{fill:#bbece9;}.cls-3{fill:#c789c0;}.cls-4{fill:#f3ed75;}.cls-5{fill:#fff;}.cls-6{fill:#819b9a;}</style></defs><title>skill_icon2</title><path class="cls-1" d="M12.2,9.58a4,4,0,0,1-1,1.72,4,4,0,0,0,2.88,1.21,4.07,4.07,0,0,0,1-.13A4,4,0,0,0,12.2,9.58Z"/><path class="cls-1" d="M11.2,11.3a4,4,0,0,1-1-1.72,4,4,0,0,0-2.88,2.8,4.09,4.09,0,0,0,1,.13A4,4,0,0,0,11.2,11.3Z"/><path class="cls-2" d="M10.21,9.58a3.58,3.58,0,0,1,1-.13,3.66,3.66,0,0,1,1,.13,3.93,3.93,0,0,0,.15-1.09A4,4,0,0,0,11.2,5.67a4,4,0,0,0-1.15,2.82A3.94,3.94,0,0,0,10.21,9.58Z"/><path class="cls-2" d="M18.3,8.49a4.26,4.26,0,0,0-7.3-3,4.26,4.26,0,0,1,1.22,3,4.32,4.32,0,0,1-.16,1.15,4.28,4.28,0,0,1,3,3A4.26,4.26,0,0,0,18.3,8.49Z"/><path class="cls-3" d="M14,4.52a4,4,0,0,1,1.25,7.74A4.56,4.56,0,0,0,12.4,9.45a4.56,4.56,0,0,0-1-3.92,3.91,3.91,0,0,1,2.64-1m0-.29a4.24,4.24,0,0,0-3,1.28,4.26,4.26,0,0,1,1.22,3,4.32,4.32,0,0,1-.16,1.15,4.28,4.28,0,0,1,3,3A4.26,4.26,0,0,0,14,4.23Z"/><path class="cls-4" d="M10.35,9.64a4,4,0,0,1-.17-1.15,4.22,4.22,0,0,1,1.22-3,4.25,4.25,0,1,0-4.09,7.09A4.26,4.26,0,0,1,10.35,9.64Z"/><path class="cls-3" d="M8.36,4.52a4,4,0,0,1,2.64,1,4.52,4.52,0,0,0-1.1,3,4.32,4.32,0,0,0,.1.95,4.56,4.56,0,0,0-2.88,2.82A4,4,0,0,1,8.36,4.52m0-.28a4.25,4.25,0,0,0-1,8.37,4.26,4.26,0,0,1,3-3,4,4,0,0,1-.17-1.15,4.22,4.22,0,0,1,1.22-3,4.24,4.24,0,0,0-3-1.28Z"/><path class="cls-1" d="M11.2,11.18a4.2,4.2,0,0,1-3,1.26,4,4,0,0,1-1-.14,4.18,4.18,0,0,0,4,5.32,4.18,4.18,0,0,0,4.19-4.19,4.23,4.23,0,0,0-.16-1.13,4,4,0,0,1-1,.14A4.2,4.2,0,0,1,11.2,11.18Z"/><path class="cls-3" d="M11.2,11.57a4.47,4.47,0,0,0,3,1.15,4.67,4.67,0,0,0,.83-.08,3.55,3.55,0,0,1,.09.79,3.91,3.91,0,1,1-7.81,0,4.23,4.23,0,0,1,.08-.79,4.76,4.76,0,0,0,.83.08,4.43,4.43,0,0,0,3-1.15m0-.39a4.2,4.2,0,0,1-3,1.26,4,4,0,0,1-1-.14,4.18,4.18,0,0,0,4,5.32,4.18,4.18,0,0,0,4.19-4.19,4.23,4.23,0,0,0-.16-1.13,4,4,0,0,1-1,.14,4.2,4.2,0,0,1-3-1.26Z"/><path class="cls-5" d="M10.05,9.45a4.72,4.72,0,0,0,1.15,2,4.52,4.52,0,0,0,1.15-2,4.48,4.48,0,0,0-2.3,0Z"/><path class="cls-3" d="M11.2,9.59a4.29,4.29,0,0,1,.79.07A4.41,4.41,0,0,1,11.2,11a4.38,4.38,0,0,1-.78-1.36,4.19,4.19,0,0,1,.78-.07m0-.29a4.83,4.83,0,0,0-1.15.15,4.72,4.72,0,0,0,1.15,2,4.52,4.52,0,0,0,1.15-2A4.83,4.83,0,0,0,11.2,9.3Z"/><path class="cls-6" d="M2.92,14.93l.65.35.36.65A.12.12,0,0,0,4,16a.15.15,0,0,0,.11-.07l.35-.65.65-.35a.15.15,0,0,0,.07-.11.12.12,0,0,0-.07-.11l-.65-.36-.35-.65a.13.13,0,0,0-.22,0l-.36.65-.65.36a.11.11,0,0,0-.06.11A.14.14,0,0,0,2.92,14.93Zm.8-.38,0-.05L4,14l.26.48,0,.05.49.27-.49.26a.12.12,0,0,0,0,.05L4,15.62l-.27-.49a.12.12,0,0,0,0-.05l-.48-.26Z"/><path class="cls-6" d="M1.79,17.39l.65.35.35.65a.15.15,0,0,0,.11.07A.12.12,0,0,0,3,18.39l.36-.65L4,17.39a.14.14,0,0,0,.06-.11A.11.11,0,0,0,4,17.17l-.65-.36L3,16.16a.13.13,0,0,0-.22,0l-.35.65-.65.36a.12.12,0,0,0-.07.11A.15.15,0,0,0,1.79,17.39Zm.8-.38L2.64,17l.26-.48.27.48.05.05.48.27-.48.26-.05.05-.27.49-.26-.49-.05-.05-.49-.26Z"/><path class="cls-6" d="M7.9,17.92H7.32l.41-.41a.23.23,0,1,0-.33-.33L7,17.56V17a.24.24,0,1,0-.47,0v.58l-.41-.41a.23.23,0,0,0-.33.33l.39.38H5.65a.24.24,0,0,0-.24.23.28.28,0,0,0,.07.17.24.24,0,0,0,.16.07h.58l-.41.41a.24.24,0,0,0,.17.4.2.2,0,0,0,.16-.07l.39-.39,0,.55a.28.28,0,0,0,.07.17.23.23,0,0,0,.4-.16v-.58l.41.41a.23.23,0,0,0,.17.07.2.2,0,0,0,.16-.07.24.24,0,0,0,0-.33l-.38-.38h.54a.24.24,0,0,0,0-.47Z"/><path class="cls-6" d="M22.24,13a.14.14,0,0,0,0-.2L21,11.67a.14.14,0,0,0-.21,0l-.38.44a.11.11,0,0,0-.08,0l-1.85,1a.22.22,0,0,0-.07.09l-1.05,3.12a.16.16,0,0,0,0,.16l.26.22.25.22a.15.15,0,0,0,.17,0l3-1.45a.16.16,0,0,0,.07-.09l.72-1.93Zm-.32-.08-.26.3-.54-.46-.49-.43.26-.31Zm-2.53,1.38a.29.29,0,1,1,0,.41A.3.3,0,0,1,19.39,14.26ZM18,16.64l-.07-.07,1.49-1.69,0-.06a.39.39,0,0,0,.44-.11.4.4,0,0,0,0-.56.41.41,0,0,0-.56,0,.39.39,0,0,0,0,.46l-.06,0-1.48,1.69-.07-.06,1-3,1.71-.91,1.14,1-.67,1.81Z"/><path class="cls-6" d="M21.09,19.77c-1.6-.25-1.79-.74-1.87-1.41a1.26,1.26,0,0,0-.2-.62c-.4-.53-1.58-.4-2-.3L17,17.16c.07,0,1.71-.37,2.3.41a1.55,1.55,0,0,1,.25.76c.06.5.12.93,1.63,1.16Z"/></svg>