<svg id="圖層_1" data-name="圖層 1" xmlns="http://www.w3.org/2000/svg" width="24" height="24" viewBox="0 0 24 24"><defs><style>.cls-1{fill:#edc5ea;}.cls-2{fill:#c789c0;}.cls-3{fill:#819b9a;}.cls-4{fill:#fff;}.cls-5{fill:#bbece9;}.cls-6{fill:#f3ed75;}.cls-7{fill:#f8d28b;}</style></defs><title>skill_icon2</title><path class="cls-1" d="M16.34,11A4.32,4.32,0,1,0,9.63,14.6v.55a.65.65,0,0,0,.65.65H14a.65.65,0,0,0,.65-.65v-.73A4.3,4.3,0,0,0,16.34,11Z"/><path class="cls-2" d="M12,7a4,4,0,0,1,2.45,7.17l-.12.09v.88a.35.35,0,0,1-.34.35H10.28a.35.35,0,0,1-.34-.35v-.72l-.14-.09A4,4,0,0,1,12,7m0-.31a4.31,4.31,0,0,0-2.39,7.9v.55a.65.65,0,0,0,.65.65H14a.65.65,0,0,0,.65-.65v-.73A4.31,4.31,0,0,0,12,6.7Z"/><rect class="cls-1" x="9.85" y="16.28" width="4.34" height="1.2" rx="0.56"/><path class="cls-2" d="M13.64,16.59a.25.25,0,0,1,.25.25v.09a.25.25,0,0,1-.25.24H10.41a.25.25,0,0,1-.25-.24v-.09a.25.25,0,0,1,.25-.25h3.23m0-.31H10.41a.56.56,0,0,0-.56.56v.09a.56.56,0,0,0,.56.55h3.23a.56.56,0,0,0,.56-.55v-.09a.56.56,0,0,0-.56-.56Z"/><rect class="cls-1" x="9.99" y="17.96" width="4.07" height="1.2" rx="0.54"/><path class="cls-2" d="M13.52,18.27a.23.23,0,0,1,.23.23v.12a.23.23,0,0,1-.23.23h-3a.23.23,0,0,1-.23-.23V18.5a.23.23,0,0,1,.23-.23h3m0-.31h-3a.54.54,0,0,0-.54.54v.12a.54.54,0,0,0,.54.54h3a.54.54,0,0,0,.54-.54V18.5a.54.54,0,0,0-.54-.54Z"/><path class="cls-3" d="M4.45,7.79a.32.32,0,1,1,.32-.32A.32.32,0,0,1,4.45,7.79Zm0-.32h0S4.46,7.48,4.46,7.47Z"/><path class="cls-3" d="M8.15,4.7a.32.32,0,0,1-.32-.32.33.33,0,0,1,.32-.32.32.32,0,0,1,.32.32A.32.32,0,0,1,8.15,4.7Zm0-.32h0Z"/><path class="cls-3" d="M19,7.48a.32.32,0,1,1,.32-.32A.32.32,0,0,1,19,7.48Zm0-.32h0Z"/><polygon class="cls-3" points="6.36 7.6 6.12 7.42 7.42 5.68 8.02 6.67 9.04 5.65 9.26 5.87 7.96 7.17 7.39 6.23 6.36 7.6"/><polygon class="cls-3" points="17.19 7.6 16.16 6.23 15.59 7.17 14.29 5.87 14.51 5.65 15.53 6.67 16.13 5.68 17.43 7.42 17.19 7.6"/><path class="cls-4" d="M10.63,8.46l.43.76a.13.13,0,0,0,.1.06l.87.08a.13.13,0,0,1,.08.21l-.59.64a.11.11,0,0,0,0,.11l.2.85a.13.13,0,0,1-.18.14L10.72,11a.13.13,0,0,0-.12,0l-.74.45a.13.13,0,0,1-.19-.13l.1-.86a.15.15,0,0,0,0-.11l-.66-.57a.13.13,0,0,1,.06-.22L10,9.35a.16.16,0,0,0,.09-.07l.34-.8A.12.12,0,0,1,10.63,8.46Z"/><path class="cls-2" d="M10.69,8.6h0m-.14.34.24.43a.42.42,0,0,0,.34.22l.5,0-.34.37a.46.46,0,0,0-.1.39l.11.49-.45-.21a.58.58,0,0,0-.18,0,.4.4,0,0,0-.22.06L10,11l.05-.49a.41.41,0,0,0-.14-.38l-.38-.33.49-.1a.42.42,0,0,0,.31-.25l.2-.46m0-.54a.11.11,0,0,0-.11.08l-.34.8a.16.16,0,0,1-.09.07l-.85.17a.13.13,0,0,0-.06.22l.66.57a.15.15,0,0,1,0,.11l-.1.86a.12.12,0,0,0,.12.14h.07L10.6,11l.07,0h.05l.79.36h.05a.13.13,0,0,0,.13-.15l-.2-.85a.11.11,0,0,1,0-.11l.59-.64A.13.13,0,0,0,12,9.36l-.87-.08a.13.13,0,0,1-.1-.06l-.43-.76a.11.11,0,0,0-.11-.06Z"/><path class="cls-4" d="M14.33,10.14l.05,1.4a.2.2,0,0,0,.09.17l1.18.75a.2.2,0,0,1,0,.36l-1.32.48a.19.19,0,0,0-.12.14l-.36,1.36a.2.2,0,0,1-.35.07l-.87-1.1a.17.17,0,0,0-.17-.08l-1.4.08a.21.21,0,0,1-.18-.32l.79-1.16a.19.19,0,0,0,0-.18l-.51-1.31a.2.2,0,0,1,.24-.27l1.35.39a.2.2,0,0,0,.18,0L14,10A.2.2,0,0,1,14.33,10.14Z"/><path class="cls-2" d="M14.19,10.23h0m-.16.14,0,1.18a.5.5,0,0,0,.23.42l1,.64-1.11.4a.51.51,0,0,0-.32.35l-.3,1.15-.73-.93a.51.51,0,0,0-.4-.2h0l-1.18.07.66-1a.51.51,0,0,0,.06-.48l-.44-1.1,1.14.33.15,0a.55.55,0,0,0,.32-.12l.92-.75m.1-.42A.2.2,0,0,0,14,10l-1.09.89a.18.18,0,0,1-.12,0h-.06l-1.35-.39h-.05a.2.2,0,0,0-.19.28l.51,1.31a.19.19,0,0,1,0,.18l-.79,1.16a.21.21,0,0,0,.17.32h0l1.4-.08h0a.18.18,0,0,1,.15.08l.87,1.1a.21.21,0,0,0,.16.08.2.2,0,0,0,.19-.15l.36-1.36a.19.19,0,0,1,.12-.14l1.32-.48a.2.2,0,0,0,0-.36l-1.18-.75a.2.2,0,0,1-.09-.17l-.05-1.4a.19.19,0,0,0-.2-.19Z"/><path class="cls-5" d="M21,11.84a3,3,0,1,0-3.24,3v5.13h.53V14.81A3,3,0,0,0,21,11.84Z"/><path class="cls-2" d="M18,9.17a2.67,2.67,0,0,1,.24,5.33l-.24,0-.24,0A2.67,2.67,0,0,1,18,9.17m0-.31a3,3,0,0,0-.26,6v5.13h.53V14.81a3,3,0,0,0-.27-6Z"/><path class="cls-5" d="M19.08,10.52a.38.38,0,1,1,0,.75.38.38,0,0,1,0-.75Z"/><path class="cls-2" d="M19.08,10.83a.07.07,0,0,1,.07.06.07.07,0,0,1-.14,0,.07.07,0,0,1,.07-.06m0-.31a.38.38,0,0,0,0,.75.38.38,0,1,0,0-.75Z"/><path class="cls-5" d="M17,10.52a.38.38,0,1,1-.38.37A.38.38,0,0,1,17,10.52Z"/><path class="cls-2" d="M17,10.83a.07.07,0,0,1,.07.06.07.07,0,0,1-.14,0,.07.07,0,0,1,.07-.06m0-.31a.38.38,0,1,0,.38.37.38.38,0,0,0-.38-.37Z"/><path class="cls-1" d="M18,13.82a1.73,1.73,0,0,1-1.73-1.73h3.46A1.72,1.72,0,0,1,18,13.82Z"/><path class="cls-2" d="M19.41,12.4a1.43,1.43,0,0,1-2.78,0h2.78m.34-.31H16.29a1.73,1.73,0,0,0,3.46,0Z"/><path class="cls-6" d="M9,11.84a3,3,0,1,0-3.25,3v5.13h.53V14.81A3,3,0,0,0,9,11.84Z"/><path class="cls-2" d="M6,9.17a2.67,2.67,0,0,1,.24,5.33l-.24,0-.24,0A2.67,2.67,0,0,1,6,9.17m0-.31a3,3,0,0,0-.27,6v5.13h.53V14.81a3,3,0,0,0-.26-6Z"/><path class="cls-7" d="M7,10.52a.38.38,0,1,1-.38.37A.38.38,0,0,1,7,10.52Z"/><path class="cls-2" d="M7,10.83a.07.07,0,0,1,.07.06.07.07,0,0,1-.14,0A.07.07,0,0,1,7,10.83m0-.31a.38.38,0,1,0,.38.37A.38.38,0,0,0,7,10.52Z"/><path class="cls-7" d="M4.92,10.52a.38.38,0,0,1,0,.75.38.38,0,1,1,0-.75Z"/><path class="cls-2" d="M4.92,10.83a.07.07,0,0,1,.07.06.07.07,0,0,1-.14,0,.07.07,0,0,1,.07-.06m0-.31a.38.38,0,1,0,0,.75.38.38,0,0,0,0-.75Z"/><path class="cls-1" d="M6,13.82a1.72,1.72,0,0,1-1.73-1.73H7.71A1.73,1.73,0,0,1,6,13.82Z"/><path class="cls-2" d="M7.37,12.4a1.43,1.43,0,0,1-2.78,0H7.37m.34-.31H4.25a1.73,1.73,0,0,0,3.46,0Z"/></svg>