<?xml version="1.0" encoding="UTF-8"?><svg id="uuid-e22debac-4af1-41b4-8747-5fbcdcd3c96e" xmlns="http://www.w3.org/2000/svg" width="24" height="24" viewBox="0 0 24 24"><defs><style>.uuid-93425887-192f-4cd2-a81e-577e47c27ba3{fill:#ef6f93;}</style></defs><path class="uuid-93425887-192f-4cd2-a81e-577e47c27ba3" d="M21.64,7.36l-6.88-2.82c-.15-.06-.32-.06-.47,0l-6.87,2.81c-.24,.1-.39,.32-.4,.58v.89H2.43c-.25,0-.46,.21-.46,.46s.21,.46,.46,.46H7.02v1.73H3.65c-.25,0-.46,.21-.46,.46s.21,.46,.46,.46h3.37v1.53H2.43c-.25,0-.46,.21-.46,.46s.21,.46,.46,.46H7.02v1.22c0,.25,.16,.48,.39,.58l6.88,2.82c.15,.06,.32,.06,.47,0l6.88-2.81c.24-.09,.39-.32,.39-.58V7.94c0-.25-.15-.48-.39-.58Zm-7.11-1.57l5.23,2.15-1.58,.65-5.23-2.15,1.58-.65Zm0,4.28l-5.23-2.14,1.58-.65,5.23,2.14-1.58,.65Zm.62,7.86v-6.77l2.03-.83v1.25c.02,.43,.38,.77,.81,.75,.41-.02,.74-.34,.75-.75v-1.88l2.03-.83v6.77s-5.63,2.3-5.63,2.3Z"/></svg>