<svg xmlns="http://www.w3.org/2000/svg" version="1.1" xmlns:xlink="http://www.w3.org/1999/xlink" xmlns:svgjs="http://svgjs.dev/svgjs" viewBox="0 0 600 600"><path d="M238.89963833146408 232.56320808300404C214.16141811662033 207.43231691886018 151.334188298912 186.09724281200795 117.1718856459172 197.22289893993764C83.00958299292242 208.34855506786732 43.61168463680261 270.9140063719852 33.925822413495325 299.31714485058217C24.239960190188043 327.7202833291793 40.33943732234948 345.91398221223596 59.05671230607345 367.6417298115198C77.77398728979742 389.36947741080377 111.80538987768807 432.9558777607387 146.22947231583908 429.6836304462856C180.65355475399014 426.41138313183245 250.1561792657089 380.8616496520148 265.6012069349797 348.00824592480103C281.0462346042505 315.1548421975875 263.6378585463078 257.69409924714796 238.89963833146408 232.56320808300404C214.16141811662033 207.43231691886018 151.334188298912 186.09724281200795 117.1718856459172 197.22289893993764 " fill="url(&quot;#ssshape-pattern6&quot;)" stroke-width="7" stroke="hsl(0, 0%, 100%)" fill-opacity="0.41" transform="matrix(2.1611275639507888,0,0,2.1611275639507888,-26.821401280952557,-374.3337951891608)"></path><defs><pattern id="ssshape-pattern6" width="40" height="40" patternUnits="userSpaceOnUse" patternTransform="scale(1) rotate(44)">
  <rect width="100%" height="100%" fill="hsl(0, 0%, 100%)"></rect>
  <polygon points="30 22 38 38 22 38" fill="hsl(55, 94%, 54%)"></polygon>
  <polygon transform="translate(11.000000, 10.000000) scale(1, -1) translate(-11.000000, -10.000000) " points="11 2 19 18 3 18" fill="hsl(55, 94%, 54%)" fill-opacity="0.5"></polygon>
</pattern></defs></svg>